<?xml version="1.0" encoding="UTF-8"?>
<svg enable-background="new 0 0 2626 1654.091" version="1.1" viewBox="0 0 2626 1654.1" xml:space="preserve" xmlns="http://www.w3.org/2000/svg" xmlns:cc="http://creativecommons.org/ns#" xmlns:dc="http://purl.org/dc/elements/1.1/" xmlns:rdf="http://www.w3.org/1999/02/22-rdf-syntax-ns#" xmlns:xlink="http://www.w3.org/1999/xlink"><metadata><rdf:RDF><cc:Work rdf:about=""><dc:format>image/svg+xml</dc:format><dc:type rdf:resource="http://purl.org/dc/dcmitype/StillImage"/><dc:title/></cc:Work></rdf:RDF></metadata>

	<path d="m1770.2 620.52c40.429-4.854 82.706 9.454 111.59 38.209 14.075 13.586 25.069 30.306 32.133 48.534 14.606 37.274 11.78 80.964-7.754 115.93-18.961 34.682-53.569 60.431-92.383 68.164-40.291 8.572-84.214-2.231-115.69-28.861-27.469-22.647-45.496-56.384-48.789-91.852-2.74-27.427 2.815-55.683 16.199-79.806 20.841-38.518 61.11-65.701 104.69-70.321m-81.474 64.403c9.656 5.917 19.598 11.355 29.35 17.134-4.515 7.903-9.029 15.806-13.639 23.656-9.826-5.768-19.726-11.419-29.562-17.155-13.257 30.433-13.352 66.337 0.106 96.717 9.879-5.672 19.651-11.557 29.626-17.081 4.366 7.967 9.125 15.7 13.544 23.635-9.804 5.704-19.736 11.207-29.435 17.113 19.141 26.11 49.182 43.786 81.314 47.801 0.064-10.548 0.011-21.085 0.021-31.623 9.826-0.053 19.651-0.021 29.477-0.011 0.021 10.633-0.011 21.277 0.011 31.92 32.993-3.452 63.968-21.468 83.577-48.173-9.815-5.736-19.673-11.377-29.509-17.06 4.525-7.892 9.071-15.785 13.65-23.645 9.879 5.651 19.683 11.451 29.636 16.985 13.342-30.401 13.204-66.146 0.011-96.568-9.932 5.63-19.747 11.472-29.69 17.091-4.525-7.871-9.114-15.711-13.575-23.603 9.804-5.747 19.715-11.324 29.509-17.102-19.694-26.641-50.594-44.667-83.598-48.141-0.042 10.644 0.011 21.298-0.021 31.942-9.826 0-19.651 0.043-29.477-0.011-0.011-10.559 0.032-21.107-0.021-31.665-32.123 4.08-62.163 21.734-81.305 47.844z" fill="#aca491" stroke="#ACA491" stroke-width=".5"/><g transform="translate(956.93 -.030578)"><circle id="righttape" cx="828.93" cy="756.95" r="458.95" fill="#483737" stroke-width=".65635"/><g transform="matrix(1.2092 0 0 1.2092 -199.69 -734.33)"><circle cx="850.69" cy="1233.3" r="198.87" fill="#ccc" stroke="#fff" stroke-width="12.43"/><rect id="rect959-5" x="846.32" y="1040.6" width="8.7532" height="35.063" fill="#fff" stroke="#fff" stroke-width="5.5557"/><use transform="rotate(20 844.2 1229.4)" width="100%" height="100%" xlink:href="#rect959-5"/><use transform="rotate(40 847.82 1231.1)" width="100%" height="100%" xlink:href="#rect959-5"/><use transform="rotate(60 849.07 1231.7)" width="100%" height="100%" xlink:href="#rect959-5"/><use transform="rotate(80 849.74 1232)" width="100%" height="100%" xlink:href="#rect959-5"/><use transform="rotate(100 850.17 1232.2)" width="100%" height="100%" xlink:href="#rect959-5"/><use transform="rotate(120 850.49 1232.3)" width="100%" height="100%" xlink:href="#rect959-5"/><use transform="rotate(140 850.76 1232.5)" width="100%" height="100%" xlink:href="#rect959-5"/><use transform="rotate(160 850.99 1232.6)" width="100%" height="100%" xlink:href="#rect959-5"/><use transform="rotate(180 851.21 1232.7)" width="100%" height="100%" xlink:href="#rect959-5"/><use transform="rotate(200 851.43 1232.8)" width="100%" height="100%" xlink:href="#rect959-5"/><use transform="rotate(220 851.66 1232.9)" width="100%" height="100%" xlink:href="#rect959-5"/><use transform="rotate(240 851.92 1233)" width="100%" height="100%" xlink:href="#rect959-5"/><use transform="rotate(260 852.24 1233.1)" width="100%" height="100%" xlink:href="#rect959-5"/><use transform="rotate(-80 852.68 1233.3)" width="100%" height="100%" xlink:href="#rect959-5"/><use transform="rotate(-60 853.35 1233.7)" width="100%" height="100%" xlink:href="#rect959-5"/><use transform="rotate(-40 854.6 1234.2)" width="100%" height="100%" xlink:href="#rect959-5"/><use transform="rotate(-20 858.21 1235.9)" width="100%" height="100%" xlink:href="#rect959-5"/></g><circle cx="828.93" cy="756.95" r="125" stroke-width=".9844"/></g><g id="leftreel"><circle id="lefttape" cx="828.93" cy="756.95" r="458.95" fill="#483737" stroke-width=".65635"/><g transform="matrix(1.2092 0 0 1.2092 -199.69 -734.33)"><circle cx="850.69" cy="1233.3" r="198.87" fill="#ccc" stroke="#fff" stroke-width="12.43"/><rect id="rect959" x="846.32" y="1040.6" width="8.7532" height="35.063" fill="#fff" stroke="#fff" stroke-width="5.5557"/><use transform="rotate(20 844.2 1229.4)" width="100%" height="100%" xlink:href="#rect959"/><use transform="rotate(40 847.82 1231.1)" width="100%" height="100%" xlink:href="#rect959"/><use transform="rotate(60 849.07 1231.7)" width="100%" height="100%" xlink:href="#rect959"/><use transform="rotate(80 849.74 1232)" width="100%" height="100%" xlink:href="#rect959"/><use transform="rotate(100 850.17 1232.2)" width="100%" height="100%" xlink:href="#rect959"/><use transform="rotate(120 850.49 1232.3)" width="100%" height="100%" xlink:href="#rect959"/><use transform="rotate(140 850.76 1232.5)" width="100%" height="100%" xlink:href="#rect959"/><use transform="rotate(160 850.99 1232.6)" width="100%" height="100%" xlink:href="#rect959"/><use transform="rotate(180 851.21 1232.7)" width="100%" height="100%" xlink:href="#rect959"/><use transform="rotate(200 851.43 1232.8)" width="100%" height="100%" xlink:href="#rect959"/><use transform="rotate(220 851.66 1232.9)" width="100%" height="100%" xlink:href="#rect959"/><use transform="rotate(240 851.92 1233)" width="100%" height="100%" xlink:href="#rect959"/><use transform="rotate(260 852.24 1233.1)" width="100%" height="100%" xlink:href="#rect959"/><use transform="rotate(-80 852.68 1233.3)" width="100%" height="100%" xlink:href="#rect959"/><use transform="rotate(-60 853.35 1233.7)" width="100%" height="100%" xlink:href="#rect959"/><use transform="rotate(-40 854.6 1234.2)" width="100%" height="100%" xlink:href="#rect959"/><use transform="rotate(-20 858.21 1235.9)" width="100%" height="100%" xlink:href="#rect959"/></g><circle cx="828.93" cy="756.95" r="125" stroke-width=".9844"/></g><g stroke-width=".5"><path d="m842.44 636.82c33.057 3.378 64.074 21.447 83.736 48.183-9.826 5.683-19.62 11.408-29.509 16.996 4.451 7.945 9.05 15.806 13.618 23.699 9.858-5.715 19.726-11.419 29.594-17.113 13.321 30.37 13.384 66.156 0.032 96.536-9.953-5.513-19.736-11.323-29.626-16.953-4.589 7.871-9.146 15.764-13.629 23.699 9.889 5.577 19.694 11.313 29.53 16.996-19.683 26.737-50.68 44.773-83.747 48.194-0.032-10.654 0-21.298-0.011-31.942-9.762 0.032-19.513-0.128-29.254 0.085 0.085 10.516 0.032 21.043 0.032 31.57-32.186-3.962-62.162-21.691-81.421-47.726 9.56-6.214 19.821-11.324 29.467-17.421-4.738-7.68-9.093-15.594-13.66-23.38-9.985 5.449-19.662 11.451-29.605 16.996-13.395-30.359-13.299-66.241-0.074-96.632 9.815 5.683 19.705 11.26 29.435 17.113 4.769-7.807 9.39-15.732 13.692-23.805-9.815-5.375-19.322-11.313-29.148-16.656 5.481-8.572 13.119-15.657 20.831-22.233 17.219-14.064 38.443-23.104 60.484-25.908 0 10.527 0.043 21.054-0.021 31.58 9.741 0.159 19.492 0.042 29.233 0.064 0.032-10.644-0.011-21.298 0.021-31.942m3.697 35.66c-12.205 0.011-24.421 0.011-36.637 0v-31.156c-28.256 4.653-54.652 20.076-72.285 42.681 9.666 5.524 19.312 11.1 28.914 16.741-5.736 10.006-11.462 20.034-17.304 29.987-9.688-5.641-19.407-11.217-29.084-16.879-10.92 27.321-10.984 58.827 0.074 86.116 9.698-5.598 19.365-11.26 29.074-16.837 5.779 10.006 11.568 20.013 17.389 29.998-9.688 5.513-19.258 11.26-29.02 16.656 17.442 22.785 44.03 38.028 72.243 42.776 0-10.389-0.011-20.788 0-31.166 12.216-0.011 24.432-0.011 36.637 0 0.053 10.527-0.085 21.054 0.074 31.591 29.042-4.345 56.32-19.896 74.41-43.095-9.656-5.609-19.343-11.143-28.989-16.752 5.747-10.017 11.493-20.023 17.304-30.008 9.709 5.577 19.386 11.207 29.137 16.73 11.015-27.268 10.941-58.71-0.011-85.988-9.698 5.64-19.428 11.217-29.116 16.879-5.8-9.996-11.547-20.002-17.315-30.008 9.645-5.63 19.312-11.185 28.989-16.751-18.09-23.199-45.39-38.857-74.474-43.074-0.01 10.516 0 21.043-0.01 31.559z" fill="#3A3A3C" stroke="#3A3A3C"/><path d="m123.8 20.805h2378.3c20.247 1.083 40.164 8.487 55.821 21.447 21.436 17.251 34.448 44.136 35.086 71.616v1426.2c-0.669 18.94-6.724 37.71-17.888 53.08-16.741 23.656-44.827 38.942-73.847 39.685-5.864-1.052-11.812-0.468-17.708-0.584-771.88-0.011-1543.8 0-2315.6 0-14.022 0.297-28.107-0.605-42.086 0.457-36.35 0.106-70.894-23.805-85.011-57.074-4.6-10.527-7.075-21.872-7.818-33.301v-1430.7c1.211-25.759 13.193-50.849 32.844-67.612 15.966-14.031 36.786-22.115 57.956-23.209m-63.49 49.5c-9.571 14.096-14.468 31.241-14.043 48.258 0.021 467.4 0 934.78 0.011 1402.2 0.17 10.644-0.69 21.404 1.423 31.92 3.771 20.438 15.711 39.229 32.579 51.359 14.213 10.442 31.857 15.806 49.447 15.721 159.94-0.032 319.88 0.053 479.81-0.032 38.782-105.87 77.522-211.76 116.39-317.59 385.91 0.011 771.82 0.021 1157.7 0 3.272 2.836 4.153 7.17 5.662 11.047 37.444 102.19 74.899 204.38 112.33 306.56 163.46 0.021 326.92 0 490.37 0.011 12.269 0.266 24.718-1.338 36.105-6.065 25.25-10.006 44.678-33.291 49.862-59.953 2.284-10.877 1.635-22.031 1.731-33.046-0.01-468.1 0.021-936.2-0.01-1404.3-0.021-23.316-10.293-46.441-27.937-61.748-14.563-12.938-33.843-20.342-53.314-20.565-790.65 0.021-1581.3 0-2372 0.011-26.226 0.435-51.666 14.404-66.198 36.222m676.19 1245.3c-36.966 101.46-74.229 202.79-111.38 304.17 454.08 0.011 908.16 0.032 1362.2-0.011-37.083-101.46-74.282-202.9-111.49-304.32-325.39 0.021-650.76 0-976.15 0.011-54.408 0.095-108.83-0.202-163.23 0.148z" stroke="#000"/>
	<path d="m60.31 70.305c14.531-21.818 39.972-35.787 66.199-36.222 790.65-0.011 1581.3 0.011 2372-0.011 19.471 0.223 38.75 7.627 53.314 20.565 17.644 15.307 27.916 38.432 27.937 61.748 0.032 468.1 0 936.2 0.01 1404.3-0.096 11.015 0.552 22.169-1.731 33.046-5.184 26.662-24.612 49.947-49.862 59.953-11.387 4.727-23.837 6.331-36.105 6.065-163.46-0.011-326.92 0.011-490.37-0.011-37.433-102.19-74.888-204.38-112.33-306.56-1.508-3.877-2.39-8.211-5.662-11.047-385.9 0.021-771.81 0.011-1157.7 0-38.867 105.83-77.607 211.72-116.39 317.59-159.93 0.085-319.87 0-479.81 0.032-17.591 0.085-35.235-5.279-49.447-15.721-16.868-12.131-28.808-30.922-32.579-51.359-2.114-10.516-1.253-21.277-1.423-31.92-0.011-467.4 0.011-934.78-0.011-1402.2-0.426-17.017 4.471-34.162 14.042-48.258m120.81 103c-9.008 2.369-16.953 8.445-21.585 16.518-3.59 6.034-4.95 13.108-4.897 20.066-0.011 329.64-0.011 659.28-0.011 988.91-0.074 7.436 1.615 14.988 5.725 21.266 5.98 9.358 16.571 15.753 27.724 16.21 745.32 0 1490.7-0.011 2236 0.011 14.553-0.308 27.948-10.899 32.154-24.74 2.411-7.202 1.424-14.85 1.625-22.275-0.01-327.54 0.011-655.08-0.01-982.63-0.074-17.962-15.774-34.055-33.748-34.459-744.98-0.032-1490 0.011-2235-0.021-2.707 0.01-5.395 0.467-7.997 1.136z" fill="#D7D1BC" stroke="#D7D1BC"/>
	<path d="m181.12 173.3c2.602-0.669 5.29-1.126 7.999-1.137 744.98 0.032 1490-0.011 2235 0.021 17.973 0.404 33.673 16.497 33.748 34.459 0.021 327.54 0 655.08 0.01 982.63-0.202 7.425 0.786 15.073-1.625 22.275-4.206 13.841-17.601 24.432-32.154 24.74-745.32-0.021-1490.7-0.011-2236-0.011-11.154-0.457-21.744-6.851-27.724-16.21-4.111-6.278-5.8-13.83-5.725-21.266 0-329.64 0-659.28 0.011-988.91-0.053-6.958 1.307-14.032 4.897-20.066 4.629-8.072 12.575-14.148 21.583-16.517m-12.354 28.872c-1.36 5.641-0.712 11.483-0.86 17.219v358.03h-1.052c-0.011 21.33-0.021 42.67 0 64 0.064 21.425-0.191 42.851 0.127 64.266h0.924c0 164.38-0.011 328.77 0.011 493.16-0.531 9.815 5.492 19.768 14.967 22.923 3.686 1.572 7.722 1.232 11.632 1.232h2223.2c3.548-0.064 7.223 0.35 10.676-0.807 9.22-2.581 16.178-11.589 16.167-21.202-0.011-166.35-0.021-332.7 0-499.06 0.308-0.276 0.914-0.818 1.211-1.083 0.01-21.043 0.361-42.118-0.181-63.14h0.298c-0.032-21.34 0.01-42.67-0.021-64h-1.317c0.011-121.98-0.01-243.95 0.011-365.93 0.042-8.923-5.811-17.484-14.085-20.746-5.736-2.454-12.078-1.328-18.101-1.572-740.72-0.011-1481.5 0.011-2222.2-0.011-9.848-0.128-19.058 7.233-21.437 16.73z" stroke="#000"/>
	<path d="m168.76 202.17c2.379-9.496 11.589-16.858 21.436-16.73 740.72 0.021 1481.5 0 2222.2 0.011 6.023 0.244 12.365-0.882 18.101 1.572 8.275 3.261 14.128 11.823 14.085 20.746-0.021 121.98 0 243.95-0.011 365.93h-439.5c-0.074-7.043 0.701-14.425-2.337-21.022-4.568-10.941-16.061-18.462-27.916-18.281-443.29 0.011-886.6 0-1329.9 0-5.024 0.021-10.155-0.34-15.052 1.02-9.433 2.486-17.41 9.847-20.682 19.025-2.677 7.361-1.519 15.318-1.763 22.976h-439.5v-358.03c0.149-5.737-0.499-11.58 0.861-17.22m62.322 48.374c0.053 52.305 0 104.61 0.032 156.91 52.305 0 104.62 0.011 156.94 0 0-52.315 0.011-104.63-0.011-156.95-52.315 0.022-104.63-0.042-156.96 0.032m202.11-0.818-0.011 2.103c643.1 0.021 1286.2 0.011 1929.3 0v-2.103c-643.1-0.01-1286.2-0.01-1929.3 0m-3.41 80.465c644.23-0.032 1288.5 0 1932.7-0.011v-2.124c-643.01-0.011-1286 0.032-1929-0.021-1.423 0.212-5.119-0.808-3.675 2.156m-3.579 78.022c645.43 0.096 1290.9 0.021 1936.3 0.043v-2.124c-645.38-0.021-1290.7 0.032-1936.1-0.021-0.043 0.529-0.128 1.581-0.17 2.102m-3.368 76.268v2.103c646.55 0.011 1293.1 0.011 1939.7 0v-2.103c-646.55-0.01-1293.1-0.01-1939.7 0z" fill="#fff" stroke="#fff"/>
	
	
	
	
	
	
	
	
	<path d="m629.85 535.42c4.897-1.36 10.028-0.999 15.052-1.02 443.29 0 886.6 0.011 1329.9 0 11.855-0.181 23.348 7.34 27.916 18.281 3.038 6.596 2.263 13.979 2.337 21.022-0.011 21.34 0 42.67-0.011 64.011-0.043 21.415-0.032 42.83 0 64.255 0 81.686 0.032 163.38-0.011 245.08-0.584 15.498-14.839 28.479-30.242 28.171-441.88 0.021-883.75 0-1325.6 0.011-7.414-0.149-15.116 0.775-22.19-1.976-11.504-4.249-19.705-15.997-19.545-28.287-0.021-79.764-0.011-159.52-0.011-239.28 0-21.425-0.011-42.851 0-64.276v-63.989c0.244-7.659-0.914-15.615 1.763-22.976 3.272-9.18 11.249-16.541 20.682-19.027m6.777 12.566c-8.54 0.435-15.796 8.222-15.668 16.773-0.021 126.7-0.011 253.41-0.011 380.11-0.106 9.241 8.307 17.23 17.506 16.815 445.11 0 890.21-0.011 1335.3 0 6.926 0.244 13.873-3.909 16.507-10.389 1.657-3.675 1.168-7.754 1.222-11.642v-369.66c0.064-4.823 0.297-10.102-2.571-14.266-3.388-5.449-9.974-8.169-16.242-7.797-445.36 0.054-890.71-0.052-1336.1 0.054z" stroke="#000"/>
	<path d="m636.63 547.98c445.36-0.106 890.71 0 1336.1-0.053 6.267-0.372 12.853 2.348 16.242 7.797 2.868 4.164 2.635 9.443 2.571 14.266v369.66c-0.053 3.888 0.436 7.967-1.222 11.642-2.634 6.48-9.581 10.633-16.507 10.389-445.11-0.011-890.21 0-1335.3 0-9.199 0.414-17.612-7.574-17.506-16.815 0-126.7-0.011-253.41 0.011-380.11-0.128-8.552 7.127-16.338 15.668-16.774m176.64 51.529c-29.392 2.836-57.945 14.096-81.219 32.281-28.967 22.509-49.925 55.268-57.637 91.193-8.062 36.647-2.698 76.163 15.328 109.14 14.393 26.577 36.552 48.895 63.044 63.469 25.589 14.17 55.226 20.884 84.427 19.29 25.642-1.232 50.934-8.955 72.923-22.211 35.787-21.266 62.502-57.212 72.36-97.673 7.213-29.01 5.98-60.07-3.569-88.4-10.506-31.517-31.336-59.411-58.349-78.723-30.774-22.04-69.684-32.185-107.31-28.361m957.05-0.01c-11.759 1.158-23.412 3.569-34.597 7.361-35.373 11.493-65.923 36.361-85.16 68.1-20.682 33.705-27.703 75.345-19.63 114.02 7.924 39.229 31.612 74.867 64.446 97.684 32.388 22.849 73.571 32.59 112.78 26.875 41.916-5.683 80.847-29.339 105.6-63.575 23.975-32.483 34.406-74.421 28.861-114.38-5.205-40.1-26.843-77.597-58.466-102.69-31.676-25.409-73.475-37.529-113.83-33.397m-735.09 9.252v292.12c172.18 0 344.35 0.011 516.52-0.011v-292.1c-172.17-0.021-344.34-0.01-516.52-0.01z" fill="#d7d1bc" stroke="#D8D3BC"/>
	<path d="m2444.6 573.7h1.317c0.032 21.33-0.011 42.66 0.021 64h-0.298c-146.84 0.011-293.7-0.011-440.55 0.011 0.011-21.34 0-42.67 0.011-64.011h439.5z" fill="#E91D24" stroke="#E91D24"/>
	<path d="m166.85 577.42h1.052 439.5v63.989c-146.86 0.021-293.7 0-440.55 0.011-0.021-21.33-0.011-42.67 0-64z" fill="#E91D24" stroke="#E91D24"/>
	
	
	<path d="m1035.2 608.76c172.18 0 344.35-0.011 516.52 0.011v292.1c-172.17 0.021-344.34 0.011-516.52 0.011v-292.12m13.31 12.927c-0.042 88.973-0.064 177.96 0.011 266.94 34.332 0.085 68.663 0.011 103 0.032 10.123-0.191 20.299 0.393 30.412-0.297l0.255-1.02c34.703-0.021 69.407-0.011 104.12-0.011l0.181 1.105c22.955 0.531 45.942 0.064 68.918 0.234 61.621-0.043 123.24 0.042 184.86-0.053 0.053-88.973 0.053-177.96 0-266.94-81.442-0.35-162.9-0.011-244.35-0.17-1.668 0.266-3.835-0.595-5.077 0.807-38.591-0.011-77.193-0.032-115.78 0.011l-0.276-0.754c-42.088 0.01-84.185-0.213-126.27 0.116z" stroke="#000"/>
	
	
	</g><g id="leftsprocket" stroke-width=".5"><path d="m813.27 599.51c37.625-3.824 76.534 6.32 107.31 28.362 27.013 19.312 47.843 47.206 58.349 78.723 9.55 28.33 10.782 59.39 3.569 88.4-9.858 40.461-36.573 76.407-72.36 97.673-21.988 13.257-47.28 20.979-72.923 22.211-29.201 1.593-58.838-5.12-84.427-19.29-26.492-14.574-48.651-36.892-63.044-63.469-18.026-32.972-23.391-72.487-15.328-109.14 7.712-35.925 28.67-68.684 57.637-91.193 23.274-18.186 51.827-29.445 81.219-32.282m-1.105 13.767c-14.84 1.742-29.424 5.726-43.01 11.95-35.968 16.104-64.414 47.801-77.097 85.054-12.981 37.518-9.465 80.369 9.613 115.21 14.871 27.618 38.952 50.138 67.527 63.086 31.272 14.404 67.771 16.911 100.74 7.021 42.033-12.248 77.469-44.731 93.445-85.468 11.802-29.498 13.416-62.927 4.461-93.413-8.455-29.498-26.8-55.874-51.009-74.633-29.392-22.721-67.813-33.269-104.67-28.808z" stroke="#000"/><path d="m812.16 613.28c36.86-4.461 75.281 6.087 104.67 28.808 24.208 18.759 42.553 45.135 51.009 74.633 8.955 30.486 7.34 63.915-4.461 93.413-15.976 40.737-51.412 73.22-93.445 85.468-32.972 9.889-69.471 7.383-100.74-7.021-28.574-12.949-52.655-35.468-67.527-63.086-19.078-34.841-22.594-77.692-9.613-115.21 12.683-37.253 41.13-68.95 77.097-85.054 13.586-6.224 28.171-10.208 43.01-11.95m0.892 7.276c-25.302 2.836-49.713 12.991-69.598 28.893-28.468 22.445-47.355 56.617-51.009 92.702-4.005 35.606 6.671 72.604 29.19 100.49 20.427 25.696 50.34 43.669 82.685 49.384 32.207 5.895 66.464-0.127 94.593-16.932 19.821-11.748 36.605-28.542 48.279-48.406 15.987-26.726 22.116-59.05 17.559-89.823-4.599-32.271-21.319-62.598-46.037-83.811-28.596-25.038-67.952-37.051-105.66-32.495z" fill="#fff" stroke="#fff"/><path d="m813.06 620.56c37.71-4.557 77.066 7.457 105.66 32.494 24.718 21.213 41.438 51.54 46.037 83.811 4.557 30.773-1.572 63.097-17.559 89.823-11.674 19.864-28.457 36.658-48.279 48.406-28.128 16.805-62.385 22.828-94.593 16.932-32.345-5.715-62.258-23.688-82.685-49.384-22.519-27.884-33.195-64.882-29.19-100.49 3.654-36.084 22.541-70.257 51.009-92.702 19.887-15.9 44.297-26.055 69.599-28.892m29.382 16.263c-0.032 10.644 0.011 21.298-0.021 31.942-9.741-0.021-19.492 0.096-29.233-0.064 0.064-10.527 0.021-21.054 0.021-31.58-22.042 2.804-43.265 11.844-60.484 25.908-7.712 6.575-15.349 13.66-20.831 22.233 9.826 5.343 19.333 11.281 29.148 16.656-4.302 8.073-8.923 15.997-13.692 23.805-9.73-5.853-19.62-11.43-29.435-17.113-13.225 30.391-13.321 66.273 0.074 96.632 9.943-5.545 19.62-11.547 29.605-16.996 4.568 7.786 8.923 15.7 13.66 23.38-9.645 6.097-19.906 11.207-29.467 17.421 19.258 26.036 49.235 43.764 81.421 47.726 0-10.527 0.053-21.054-0.032-31.57 9.741-0.212 19.492-0.053 29.254-0.085 0.011 10.644-0.021 21.287 0.011 31.942 33.068-3.42 64.064-21.457 83.747-48.194-9.836-5.683-19.641-11.419-29.53-16.996 4.483-7.935 9.04-15.827 13.629-23.699 9.889 5.63 19.673 11.44 29.626 16.953 13.352-30.38 13.289-66.167-0.032-96.536-9.868 5.694-19.736 11.398-29.594 17.113-4.568-7.892-9.167-15.753-13.618-23.699 9.889-5.587 19.683-11.313 29.509-16.996-19.662-26.736-50.679-44.805-83.736-48.183z" fill="#ACA491" stroke="#ACA491"/></g><g stroke-width=".5">
	
	
	
	
	
	
	<path d="m2005 637.71c146.86-0.021 293.71 0 440.55-0.011 0.542 21.022 0.191 42.097 0.181 63.14-0.297 0.266-0.903 0.807-1.211 1.083-146.5 0.096-293.01 0.021-439.52 0.042-0.033-21.425-0.043-42.84-1e-3 -64.254z" fill="#301C0F" stroke="#301C0F"/>
	<path d="m166.85 641.42c146.86-0.011 293.7 0.011 440.55-0.011-0.011 21.425 0 42.851 0 64.276h-439.5-0.924c-0.319-21.414-0.064-42.84-0.128-64.265z" fill="#301C0F" stroke="#301C0F"/>
	
	
	<path d="m2005 701.97c146.52-0.021 293.02 0.053 439.52-0.042-0.021 166.36-0.011 332.72 0 499.06 0.011 9.613-6.947 18.621-16.167 21.202-3.452 1.158-7.128 0.744-10.676 0.807h-2223.2c-3.909 0-7.946 0.34-11.632-1.232-9.475-3.155-15.498-13.108-14.967-22.923-0.021-164.38-0.011-328.77-0.011-493.16h439.5c0 79.764-0.011 159.52 0.011 239.28-0.159 12.29 8.041 24.039 19.545 28.287 7.075 2.751 14.776 1.827 22.19 1.976 441.88-0.011 883.75 0.011 1325.6-0.011 15.402 0.308 29.658-12.673 30.242-28.171 0.044-81.696 0.012-163.39 0.012-245.08m37.986 24.176v30.784c1.296 0 2.624 0 3.983 0.011-0.011-7.999 0.011-16.008-0.011-24.007 5.194 8.031 10.453 16.019 15.711 24.017 1.381-0.021 2.783-0.021 4.228-0.021-0.021-10.261-0.021-20.523 0-30.784-1.36-0.011-2.688-0.021-3.994-0.011 0 7.999-0.021 16.008 0.011 24.007-5.205-8.031-10.452-16.029-15.711-24.017-1.434 0-2.836 0.011-4.217 0.021m54.163 0c-0.021 1.317-0.01 2.634 0.021 3.973 1.2-0.011 2.443-0.011 3.697 0-0.021-1.338-0.011-2.656 0.021-3.973-1.274-0.01-2.517-0.01-3.739 0m-1633.2 2.677c-0.011 1.572 0 3.155 0 4.748 1.508-0.011 3.017-0.011 4.536 0-0.032-1.625-0.064-3.24-0.096-4.833-1.487 0.021-2.963 0.043-4.44 0.085m-212.98 36.605c1.593-0.011 3.187-0.011 4.78 0.011 0.011-9.242-0.032-18.483 0.032-27.724 0.616 0.457 1.137 1.02 1.551 1.678 5.63 8.7 11.26 17.399 16.996 26.025 1.678 0 3.367 0.011 5.056 0.032v-36.658h-4.78c0.011 9.465-0.021 18.929 0.021 28.404-6.235-9.454-12.343-18.993-18.632-28.404-1.678-0.011-3.346-0.011-5.014-0.011-0.031 12.215 1e-3 24.431-0.01 36.647m152.96 0c1.498 0 3.006 0 4.515 0.011v-36.637c-1.126-0.011-3.378-0.021-4.493-0.021-0.044 12.215-1e-3 24.431-0.022 36.647m26.024-36.626v36.637c6.777-0.276 13.671 0.648 20.363-0.659 5.98-1.052 9.38-8.201 7.138-13.66-1.073-2.656-3.537-4.376-6.14-5.301 2.188-1.402 4.238-3.314 4.748-5.97 1.222-5.014-2.879-10.102-7.839-10.729-6.054-0.711-12.183-0.159-18.27-0.318m1648 6.097c-6.82 3.017-7.616 12.577-4.132 18.387 3.962 6.055 14.16 5.407 17.506-0.956 2.273-5.332 1.976-12.832-3.102-16.475-2.954-2.082-6.99-2.294-10.272-0.956m19.173-0.266v22.296c1.211 0 2.454 0 3.718 0.011-0.01-7.436-0.01-14.871 0-22.296-1.264-0.011-2.507-0.011-3.718-0.011m8.742 6.459c0.319 4.653 5.513 5.439 9.104 6.48 1.923 0.627 5.608 1.062 4.95 3.952-2.093 4.642-10.346 3.346-11.079-1.742-0.892 0.127-2.666 0.404-3.559 0.531 0.786 7.043 9.741 8.955 15.063 5.768 3.091-1.668 4.493-6.161 2.294-9.071-3.293-3.952-9.688-2.443-13.044-6.119-0.106-5.216 8.891-4.695 9.56 0.117 1.179-0.191 2.39-0.382 3.612-0.574-0.978-8.775-17.283-8.594-16.901 0.658m23.051-3.219c-2.921 4.228-3.145 10.166-0.786 14.691 3.899 7.329 17.049 6.437 19.099-1.955-0.871-0.138-2.613-0.414-3.495-0.552-1.392 3.335-5.279 5.162-8.689 3.888-3.144-0.839-4.451-4.164-4.929-7.053 5.757-0.106 11.515-0.011 17.282-0.064-0.095-3.452-0.499-7.298-3.134-9.826-4.035-4.27-11.832-3.792-15.348 0.871m-1835.6 1.339c-7.563 2.911-8.742 12.789-6.278 19.545 2.507 7.542 13.182 9.486 18.897 4.451 4.685-4.09 4.939-11.196 3.378-16.794-1.763-6.629-9.889-9.858-15.997-7.202m22.382-0.319v26.545c1.498-0.021 3.006-0.021 4.525-0.011 0.351-6.565-0.882-13.32 0.86-19.715 0.914-3.219 4.695-3.909 7.244-2.114 0.478-1.37 0.967-2.73 1.455-4.09-2.188-0.775-4.642-1.816-6.905-0.648-1.317 0.903-2.231 2.252-3.229 3.484 0.011-0.871 0.032-2.603 0.043-3.463-1.338-9e-3 -2.666 1e-3 -3.993 0.012m16.995 0v26.535c1.498 0 2.996 0 4.504 0.021 0.212-6.012-0.414-12.078 0.329-18.037 0.521-4.408 6.044-6.416 9.603-4.111 2.486 7.064 0.69 14.797 1.232 22.137 1.498-0.011 3.006-0.011 4.515 0 0.106-5.98-0.223-11.982 0.159-17.941 0.255-5.237 9.146-7.531 10.665-1.901 0.733 6.575 0.138 13.236 0.329 19.843 1.498-0.011 3.006-0.011 4.515 0-0.329-7.404 0.712-14.946-0.648-22.243-2.284-6.873-12.481-5.949-15.817-0.361-2.443-6.331-11.536-5.449-14.967-0.457 0.032-0.882 0.096-2.624 0.117-3.495-1.519-1e-3 -3.027-1e-3 -4.536 0.01m41.874 7.616c1.466 0.202 2.942 0.414 4.419 0.627 0.977-5.407 7.765-6.416 11.77-3.75 1.466 1.338 1.392 3.463 1.508 5.311-4.961 1.87-10.771 0.786-15.296 3.856-3.983 2.847-3.803 9.709 0.531 12.141 4.865 2.656 10.93 1.062 14.882-2.528 0.074 3.399 3.027 3.707 5.768 3.314-2.528-7.074-0.202-14.744-1.625-21.978-1.36-4.982-7.616-5.47-11.897-5.077-4.749 0.139-9.285 3.187-10.06 8.084m89.313-7.627v26.556c1.498-0.011 3.006-0.011 4.515 0v-26.556c-1.509-0.01-3.017-0.01-4.515 0m10.538 7.627c1.466 0.202 2.942 0.414 4.419 0.627 0.988-5.396 7.765-6.405 11.77-3.75 1.455 1.338 1.402 3.463 1.508 5.311-4.939 1.859-10.707 0.797-15.222 3.803-4.068 2.826-3.898 9.794 0.499 12.216 4.865 2.624 10.899 1.03 14.829-2.549 0.096 3.399 3.017 3.729 5.768 3.314-2.486-7.043-0.244-14.659-1.583-21.861-1.487-5.449-8.445-5.704-13.044-5.046-4.409 0.34-8.19 3.516-8.944 7.935m32.77-7.117c-3.856 1.37-5.832 6.342-3.707 9.921 2.082 3.24 6.203 3.75 9.603 4.769 2.571 0.765 5.832 0.967 6.915 3.898-1.753 6.607-12.864 5.364-13.554-1.338-1.498 0.202-2.985 0.414-4.461 0.637 0.818 3.24 2.56 6.565 5.874 7.818 4.472 1.466 9.889 1.338 13.692-1.721 2.741-2.401 3.654-7.011 1.264-9.964-4.079-4.546-11.791-2.698-15.689-7.213 0.117-6.108 11.132-5.417 11.695 0.425 1.508-0.244 3.017-0.499 4.525-0.786-1.222-7.295-10.315-9.006-16.157-6.446m1535.7 37.997c-0.011 10.272 0 20.533 0 30.805 1.296-0.011 2.624-0.011 3.983 0 0-4.61-0.021-9.21 0.011-13.809 3.187 0.234 7.202-0.967 9.656 1.774 3.272 3.59 5.492 7.988 8.169 12.025 1.179 0.011 3.537 0.021 4.716 0.021-3.335-4.769-5.566-10.633-10.548-14.011 2.985-0.69 6.427-1.806 7.691-4.918 2.241-4.546-0.5-11.026-5.8-11.578-5.939-0.681-11.93-0.139-17.878-0.309m134.9 0c-0.021 1.317-0.032 2.645-0.01 3.973 1.221-0.011 2.464 0 3.728 0.011-0.032-1.338-0.032-2.666 0-3.983-1.264-0.012-2.507-0.012-3.718-1e-3m-66.39 0.01c-0.01 3.622-0.064 7.266 0.074 10.899-3.654-4.504-11.483-3.643-14.053 1.54-2.911 5.556-2.422 13.788 3.144 17.538 3.484 2.433 8.466 1.519 11.015-1.848-0.064 0.669-0.181 1.997-0.244 2.656 0.946 0 2.836 0.011 3.782 0.011 0-10.272-0.011-20.533 0-30.805-0.924-1e-3 -2.783 9e-3 -3.718 9e-3m54.961 3.038c-0.011 1.806-0.021 3.612 0.01 5.439-0.658 0.011-1.986 0.011-2.645 0.011-0.011 0.722-0.011 2.156-0.011 2.879 0.669 0.032 2.029 0.106 2.709 0.149 0.074 5.587-0.436 11.249 0.255 16.815 0.69 3.314 4.802 3.144 7.457 2.953-0.096-1.19-0.17-2.369-0.223-3.537-1.328-0.234-3.24 0.234-3.76-1.36-0.181-4.982-0.021-9.974-0.064-14.956 1.221-0.032 2.475-0.053 3.75-0.074-0.011-0.712-0.032-2.146-0.042-2.868-1.264-0.011-2.496-0.011-3.707 0-0.021-2.592-0.021-5.184 0-7.754-1.265 0.752-2.508 1.528-3.729 2.303m-91.427 7.776c-3.601 3.909-3.941 10.091-1.965 14.85 3.208 7.754 16.72 7.701 19.206-0.574-0.807-0.266-2.422-0.797-3.24-1.062-1.604 3.474-5.895 5.269-9.38 3.474-2.783-1.062-3.665-4.175-4.196-6.777 5.736-0.043 11.483-0.021 17.23-0.011-0.085-3.112-0.287-6.49-2.337-8.997-3.506-4.77-11.218-5.003-15.318-0.903m45.761-2.316c0.042 5.301-0.095 10.601 0.042 15.902 0.085 2.656 1.434 5.534 4.175 6.342 3.622 1.625 7.776 0.053 10.145-2.942 0 0.754-0.011 2.252-0.021 2.995h3.707c0.021-7.436-0.011-14.861 0.01-22.296-1.264-0.021-2.496-0.021-3.707-0.021-0.234 5.184 0.436 10.453-0.382 15.583-0.775 4.982-9.762 5.747-10.155 0.191-0.266-5.258-0.021-10.516-0.106-15.774-1.265-1e-3 -2.508-1e-3 -3.708 0.02m25.717 20.172c5.375 5.396 15.796 2.252 16.646-5.545-0.924-0.149-2.762-0.436-3.675-0.574-0.595 2.209-1.657 4.844-4.175 5.364-3.484 1.19-7.308-1.296-7.892-4.833-0.776-3.941-0.69-9.656 3.675-11.462 3.166-1.657 7.128 0.563 7.744 4.005 1.211-0.159 2.432-0.308 3.697-0.457-0.754-5.29-6.522-8.487-11.515-6.926-8.754 1.86-9.922 14.639-4.505 20.428m31.378-20.182c-0.01 7.436 0 14.871 0 22.307 1.2-0.021 2.443-0.021 3.718-0.011-0.01-7.436 0-14.861 0-22.296-1.264-0.011-2.507-0.011-3.718 0m14.861 0.042c-7.351 2.688-8.424 12.917-4.525 18.834 4.143 6.034 14.638 5.003 17.559-1.71 1.53-4.175 1.625-9.22-0.669-13.129-2.454-4.144-7.978-5.588-12.365-3.995m18.335-0.032c0.01 7.436-0.021 14.861 0.01 22.296h3.707c0.202-5.046-0.446-10.155 0.351-15.137 0.807-4.515 8.583-5.704 9.964-1.03 0.711 5.332 0.096 10.782 0.308 16.167h3.707c-0.096-5.747 0.191-11.504-0.127-17.24-0.956-6.745-10.867-7.33-14.234-2.156 0-0.733 0.021-2.199 0.021-2.921-1.264 0-2.507 0-3.707 0.021m-169.43 45.4c0 20.629-0.011 41.247 0 61.875h61.875v-61.875h-61.875m80.73 13.278c-0.011 10.176-0.011 20.363 0 30.539h9.56v-30.539c-3.197-0.01-6.383-0.01-9.56 0m16.465 0c0 9.932-0.01 19.875 0.011 29.806-0.074 0.69 0.138 1.349 0.436 2.008l0.18-1.317c2.656 0.021 5.417 0.053 8.126 0.053 0.032-5.545-0.042-11.09 0.042-16.624 3.835 5.449 7.563 10.994 11.281 16.539 3.027 0.106 6.076 0.085 9.135 0.074v-30.539c-3.027 0-6.034-0.011-9.029 0-0.011 5.619-0.011 11.228 0 16.847-3.835-5.609-7.648-11.228-11.462-16.847-2.92 0-5.831-0.01-8.72 0m-97.195 62.938c-0.011 20.629 0 41.247 0 61.875h61.875v-61.875c-20.628-0.01-41.246 0-61.875 0m89.802 14.946c-13.236 2.815-14.468 24.039-2.698 29.52 6.278 2.326 14.298 2.369 19.524-2.348 5.099-5.024 5.375-13.352 2.974-19.715-3.218-7.436-12.63-9.337-19.8-7.457m26.248-0.064c0.053 6.49-0.117 12.991 0.064 19.481 0.244 4.631 3.07 9.348 7.701 10.686 4.249 1.094 8.827 1.285 13.119 0.234 4.823-1.264 8.115-6.034 8.264-10.92 0.159-6.501 0-12.991 0.064-19.481-3.197-0.021-6.384-0.021-9.56-0.011-0.096 6.703 0.159 13.416-0.106 20.119-0.786 4.992-8.997 5.046-9.868 0.085-0.297-6.724-0.032-13.469-0.117-20.204-3.209-0.01-6.396-0.01-9.561 0.011m33.461 7.415c3.166 0 6.352 0.011 9.56 0.011-0.01 7.701-0.01 15.392 0 23.093 3.166 0 6.342 0 9.55 0.021 0.021-7.712-0.01-15.413 0.011-23.114 3.176-0.011 6.352-0.011 9.56 0-0.021-2.486-0.021-4.961 0-7.436-9.56-0.011-19.12-0.011-28.68 0-0.023 2.475-0.023 4.939-1e-3 7.425m-1380.1 108.21c-10.92 8.222-16.89 21.563-18.334 34.926-1.392 13.129-0.839 26.938 4.578 39.176 5.014 10.58 13.257 20.193 24.293 24.665 9.263 3.686 19.375 4.578 29.265 4.43 10.41-0.021 21.309-1.933 29.913-8.147 10.049-6.873 15.955-18.334 18.632-29.955-9.964-3.155-20.013-6.055-29.976-9.22-1.073 4.334-2.326 8.71-4.685 12.545-6.958 12.747-28.904 12.088-34.98-1.115-3.112-6.936-3.367-14.712-3.42-22.19 0.17-7.627 0.786-15.923 5.651-22.169 6.257-8.625 19.62-10.399 28.192-4.27 4.1 2.751 6.512 7.213 7.903 11.844 10.091-2.252 20.183-4.451 30.263-6.745-2.698-8.349-6.958-16.359-13.363-22.456-8.487-8.232-20.554-11.323-32.058-11.865-14.51-0.83-30.062 1.485-41.874 10.546m111.31-1.487c-16.22 14.043-17.006 42.33-1.158 56.947 7.138 6.979 17.431 10.123 27.289 9.146 8.126-0.34 15.371-4.759 21.085-10.261-0.967 7.446-1.264 15.243-4.387 22.212-2.539 5.672-9.571 9.411-15.509 6.703-4.366-1.763-5.8-6.671-6.713-10.845-10.283 1.317-20.576 2.539-30.847 3.93 2.273 7.425 6.214 14.627 12.503 19.396 5.587 4.398 12.609 6.437 19.609 7.096 10.282 0.871 21.117 0.648 30.656-3.782 7.956-3.527 14.723-9.751 18.685-17.516 5.396-10.198 6.724-21.935 7.085-33.301 0.117-10.984-0.712-22.243-4.78-32.558-3.707-9.199-10.272-17.644-19.407-21.893-8.976-4.079-19.088-4.854-28.808-4.345-9.061 0.456-18.355 2.995-25.303 9.071m123.45-7.956c-7.542 1.466-14.839 4.823-20.257 10.357-6.129 6.437-8.944 15.201-10.484 23.762-1.912 11.78-2.135 23.837-0.839 35.702 0.914 7.457 2.379 14.967 5.566 21.818 4.738 9.688 13.777 17.442 24.463 19.62 9.667 2.029 19.853 1.933 29.509-0.191 8.519-1.891 16.518-6.862 21.064-14.436 5.917-9.794 7.68-21.425 8.413-32.664 0.733-13.618-0.117-27.544-4.536-40.535-2.464-7.319-7.404-13.714-13.682-18.154-11.503-7.499-26.141-7.531-39.217-5.279m-420.12 0.563c-0.021 36.732-0.011 73.465-0.011 110.21h35.065c11.015-0.138 22.233 0.807 32.993-2.199 12.152-2.284 22.307-11.164 27.735-22.073 5.534-10.824 5.81-23.348 5.63-35.245-0.627-14.914-5.056-30.922-17.006-40.747-8.636-7.361-20.214-9.709-31.262-9.9-17.718-0.108-35.437-2e-3 -53.144-0.044m831.42 39.834c-2.847 8.423-3.049 17.654-1.136 26.312 2.528 10.505 10.622 20.193 21.542 22.392 8.795 1.71 18.334 2.093 26.8-1.285 8.519-3.527 13.798-11.993 15.827-20.692-6.108-1.838-12.237-3.612-18.334-5.481-1.083 4.26-2.645 8.965-6.597 11.398-4.801 2.571-11.43 2.263-15.498-1.551-3.643-3.59-3.898-9.061-4.228-13.841-0.085-5.396-0.032-11.334 3.25-15.902 4.228-6.119 14.17-6.883 19.312-1.519 1.615 1.551 2.39 3.729 3.314 5.736 6.065-1.37 12.152-2.687 18.228-4.015-2.539-7.722-7.606-15.211-15.402-18.302-8.381-3.272-17.771-3.293-26.471-1.413-9.358 2.059-17.516 9.038-20.607 18.163m147.52-8.7c-4.122 6.639-3.091 16.104 2.857 21.34 6.257 5.46 14.648 7.34 22.53 9.146 3.59 1.03 7.871 1.848 9.985 5.311 1.859 3.229-0.329 7.308-3.558 8.594-4.238 1.7-9.55 1.296-13.098-1.71-2.581-2.22-3.378-5.651-4.068-8.817-6.618 0.584-13.257 0.818-19.864 1.338 0.648 5.885 2.73 11.791 6.926 16.104 5.301 5.662 13.49 6.83 20.862 7.255 8.997 0.383 19.014-0.425 26.131-6.586 8.424-6.915 10.378-21.032 2.581-29.137-6.745-6.565-16.475-8.169-25.271-10.304-3.304-0.913-7.765-1.105-9.326-4.706-0.414-2.125 0.913-4.472 2.964-5.205 3.463-1.434 7.712-1.137 10.909 0.871 2.379 1.551 3.304 4.376 3.941 7.011 6.543-0.244 13.087-0.86 19.641-1.041-0.797-6.363-3.654-12.927-9.454-16.199-7.563-4.196-16.603-4.355-25.005-3.665-7.531 0.585-15.732 3.527-19.683 10.4m67.972 0.021c-4.122 6.65-3.07 16.114 2.889 21.33 6.087 5.301 14.202 7.245 21.882 8.987 3.803 1.073 8.37 1.827 10.633 5.492 1.795 3.197-0.319 7.202-3.495 8.53-4.228 1.731-9.56 1.349-13.14-1.636-2.613-2.22-3.42-5.683-4.111-8.859-6.618 0.584-13.257 0.818-19.864 1.338 0.775 8.849 5.768 18.069 14.585 21.043 8.647 2.826 18.069 2.995 27.002 1.476 8.275-1.423 16.072-7.011 18.706-15.19 2.836-7.744 0.425-17.431-6.607-22.084-8.2-5.619-18.377-6.586-27.693-9.263-2.528-0.574-5.258-3.219-3.771-5.927 1.763-3.877 6.979-3.888 10.569-3.07 4.026 0.744 6.278 4.61 6.968 8.36 6.522-0.351 13.055-0.871 19.598-1.083-0.797-6.342-3.633-12.885-9.401-16.167-7.574-4.238-16.667-4.387-25.101-3.686-7.518 0.584-15.708 3.537-19.649 10.409m-149.33 57.51c7.064 0.064 14.128 0.011 21.213 0.032 1.19-3.697 2.316-7.425 3.42-11.143 7.839-0.032 15.689 0.011 23.539-0.021 1.094 3.718 2.22 7.425 3.346 11.143 7.255 0.021 14.51 0.042 21.776-0.011-8.349-22.381-16.624-44.795-24.973-67.176-7.68 0.042-15.349 0.011-23.008 0.021-8.466 22.371-16.837 44.784-25.313 67.155m215.63-67.155c0 22.403-0.011 44.795 0.011 67.187 18.929 0 37.869-0.011 56.809 0.011 0.011-5.056 0-10.102 0.011-15.148-12.046-0.011-24.081 0.011-36.116-0.011-0.011-4.43-0.011-8.849 0-13.267 10.888-0.011 21.776 0 32.664 0-0.011-4.61-0.011-9.21 0-13.809-10.909-0.042-21.808 0.074-32.706-0.064 0.043-3.516 0.032-7.032 0.021-10.537 11.685-0.053 23.38-0.011 35.075-0.021-0.011-4.78-0.011-9.56 0-14.34-18.59-1e-3 -37.179-1e-3 -55.769-1e-3m63.204 0c-0.011 5.577-0.011 11.154 0.011 16.73 7.075 0 14.149-0.011 21.234 0.011 0 16.815-0.011 33.63 0.011 50.446 6.894-0.011 13.788-0.011 20.693 0 0.021-16.815-0.011-33.641 0.021-50.456h21.234c0-5.577-0.011-11.154 0-16.73-21.076-1e-3 -42.14-1e-3 -63.204-1e-3m67.718 0c-0.011 5.577-0.011 11.154 0.011 16.73 7.075 0.032 14.17-0.064 21.266 0.053-0.074 16.794-0.021 33.599-0.032 50.403h20.714c0-16.826-0.011-33.641 0-50.456h21.234c0.011-5.577 0-11.154 0.011-16.73h-63.204m72.763 0.011c0 22.392-0.011 44.784 0.011 67.176 18.95-0.064 37.911 0.117 56.872-0.096-0.117-5.014-0.043-10.028-0.053-15.031-12.035-0.021-24.07-0.021-36.095 0-0.042-4.429-0.021-8.859-0.021-13.278 10.877-0.021 21.765-0.011 32.664-0.011-0.011-4.61-0.011-9.21 0-13.809-10.899-0.011-21.787 0.011-32.675-0.011 0-3.537 0-7.074 0.011-10.601 11.674-0.021 23.359 0 35.054-0.011-0.011-4.78-0.011-9.56 0-14.33-18.589-9e-3 -37.179-9e-3 -55.768 2e-3m-1205.4 36.371v23.901h44.614v-23.901h-44.614z" fill="#fff" stroke="#fff"/></g><g stroke="#000" stroke-width=".5">
	<path d="m2043 726.14c1.381-0.011 2.783-0.021 4.217-0.021 5.258 7.988 10.506 15.987 15.711 24.017-0.032-7.999-0.011-16.008-0.011-24.007 1.307-0.011 2.634 0 3.994 0.011-0.021 10.261-0.021 20.522 0 30.784-1.445 0-2.847 0-4.228 0.021-5.258-7.999-10.516-15.987-15.711-24.017 0.021 7.999 0 16.008 0.011 24.007-1.36-0.011-2.688-0.011-3.983-0.011v-30.784z"/>
	<path d="m2097.2 726.14c1.222-0.011 2.465-0.011 3.739 0-0.032 1.317-0.043 2.634-0.021 3.973-1.253-0.011-2.496-0.011-3.697 0-0.031-1.338-0.042-2.656-0.021-3.973z"/>
	<path d="m464 728.82c1.477-0.042 2.953-0.064 4.44-0.085 0.032 1.593 0.064 3.208 0.096 4.833-1.519-0.011-3.027-0.011-4.536 0 0-1.593-0.01-3.176 0-4.748z"/>
	<path d="m251.02 765.42c0.011-12.216-0.021-24.432 0.011-36.647 1.668 0 3.335 0 5.014 0.011 6.288 9.411 12.396 18.95 18.632 28.404-0.043-9.475-0.011-18.94-0.021-28.404h4.78v36.658c-1.689-0.021-3.378-0.032-5.056-0.032-5.736-8.625-11.366-17.325-16.996-26.025-0.414-0.659-0.935-1.222-1.551-1.678-0.064 9.241-0.021 18.483-0.032 27.724-1.594-0.022-3.188-0.022-4.781-0.011z"/>
	<path d="m403.99 765.42c0.021-12.216-0.021-24.432 0.021-36.647 1.115 0 3.367 0.011 4.493 0.021v36.637c-1.508-0.011-3.017-0.011-4.514-0.011z"/>
	<path d="m430.01 728.8c6.087 0.159 12.216-0.393 18.271 0.319 4.961 0.627 9.061 5.715 7.839 10.729-0.51 2.656-2.56 4.568-4.748 5.97 2.603 0.924 5.067 2.645 6.14 5.301 2.241 5.46-1.158 12.609-7.138 13.66-6.692 1.307-13.586 0.382-20.363 0.659-1e-3 -12.217-1e-3 -24.433-1e-3 -36.638m4.791 4.238c-0.011 3.707-0.011 7.425-0.011 11.143 4.376-0.181 8.848 0.499 13.161-0.51 4.706-1.052 4.738-8.594 0.34-10.049-4.408-1.126-9.007-0.382-13.49-0.584m-0.01 15.413v12.726c4.833-0.234 9.794 0.574 14.553-0.531 4.908-1.349 5.428-8.859 0.935-11.09-4.909-1.976-10.358-0.807-15.488-1.105z"/>
	</g><path d="m434.8 733.04c4.483 0.202 9.082-0.542 13.49 0.584 4.398 1.455 4.366 8.997-0.34 10.049-4.313 1.009-8.785 0.329-13.161 0.51 1e-3 -3.718 1e-3 -7.436 0.011-11.143z" fill="#fff" stroke="#fff" stroke-width=".5"/><g stroke="#000" stroke-width=".5">
	<path d="m2078 734.9c3.282-1.338 7.319-1.126 10.272 0.956 5.078 3.643 5.375 11.143 3.102 16.475-3.346 6.363-13.544 7.011-17.506 0.956-3.485-5.81-2.688-15.37 4.132-18.387m1.126 3.166c-5.64 3.782-4.695 15.519 2.847 16.274 5.757 0.319 7.956-6.522 6.767-11.185-0.405-4.441-5.705-7.511-9.614-5.089z"/>
	<path d="m2097.2 734.63c1.211 0 2.454 0 3.718 0.011-0.01 7.425-0.01 14.861 0 22.296-1.264-0.011-2.507-0.011-3.718-0.011v-22.296z"/>
	<path d="m2105.9 741.09c-0.382-9.252 15.923-9.433 16.9-0.659-1.222 0.191-2.433 0.382-3.612 0.574-0.669-4.812-9.666-5.332-9.56-0.117 3.357 3.675 9.751 2.167 13.044 6.119 2.199 2.911 0.797 7.404-2.294 9.071-5.322 3.187-14.276 1.275-15.063-5.768 0.892-0.127 2.666-0.404 3.559-0.531 0.733 5.088 8.987 6.384 11.079 1.742 0.658-2.889-3.027-3.325-4.95-3.952-3.589-1.04-8.784-1.826-9.103-6.479z"/>
	<path d="m2129 737.87c3.516-4.663 11.313-5.141 15.349-0.871 2.635 2.528 3.038 6.373 3.134 9.826-5.768 0.053-11.525-0.042-17.282 0.064 0.478 2.889 1.784 6.214 4.929 7.053 3.41 1.275 7.298-0.552 8.689-3.888 0.882 0.138 2.624 0.414 3.495 0.552-2.05 8.392-15.201 9.284-19.099 1.955-2.359-4.525-2.136-10.463 0.785-14.691m1.232 5.758c4.525 0.053 9.05 0.032 13.597 0.021-0.351-3.017-2.273-6.023-5.524-6.31-3.973-0.828-7.733 2.358-8.073 6.289z"/>
	</g><path d="m2079.2 738.06c3.909-2.422 9.21 0.648 9.614 5.088 1.19 4.663-1.009 11.504-6.767 11.185-7.542-0.754-8.488-12.492-2.847-16.273z" fill="#fff" stroke="#fff" stroke-width=".5"/>
	<path d="m2130.2 743.63c0.34-3.93 4.1-7.117 8.073-6.288 3.25 0.287 5.173 3.293 5.524 6.31-4.547 0.01-9.072 0.031-13.597-0.022z" fill="#fff" stroke="#fff" stroke-width=".5"/><g stroke="#000" stroke-width=".5">
	<path d="m293.44 739.21c6.108-2.656 14.234 0.574 15.997 7.202 1.561 5.598 1.307 12.704-3.378 16.794-5.715 5.035-16.39 3.091-18.897-4.451-2.464-6.756-1.285-16.635 6.278-19.545m3.102 2.985c-6.129 1.615-6.841 9.422-5.364 14.563 0.988 4.249 6.15 6.958 10.102 4.812 4.642-2.401 4.929-8.54 4.132-13.055-0.606-4.068-4.706-7.425-8.87-6.32z"/>
	<path d="m315.82 738.89c1.328-0.011 2.656-0.021 3.994-0.011-0.011 0.86-0.032 2.592-0.043 3.463 0.999-1.232 1.912-2.581 3.229-3.484 2.263-1.168 4.716-0.127 6.905 0.648-0.489 1.36-0.977 2.719-1.455 4.09-2.549-1.795-6.331-1.105-7.244 2.114-1.742 6.395-0.51 13.151-0.86 19.715-1.519-0.011-3.027-0.011-4.525 0.011-1e-3 -8.849-1e-3 -17.697-1e-3 -26.546z"/>
	<path d="m332.82 738.89c1.508-0.011 3.017-0.011 4.536-0.011-0.021 0.871-0.085 2.613-0.117 3.495 3.431-4.992 12.524-5.874 14.967 0.457 3.335-5.587 13.533-6.511 15.817 0.361 1.36 7.298 0.319 14.84 0.648 22.243-1.508-0.011-3.017-0.011-4.515 0-0.191-6.607 0.404-13.267-0.329-19.843-1.519-5.63-10.41-3.335-10.665 1.901-0.382 5.959-0.053 11.961-0.159 17.941-1.508-0.011-3.017-0.011-4.515 0-0.542-7.34 1.253-15.073-1.232-22.137-3.559-2.305-9.082-0.297-9.603 4.111-0.744 5.959-0.117 12.025-0.329 18.037-1.508-0.021-3.006-0.021-4.504-0.021v-26.534z"/>
	<path d="m374.69 746.51c0.775-4.897 5.311-7.945 10.059-8.084 4.281-0.393 10.537 0.096 11.897 5.077 1.423 7.234-0.903 14.903 1.625 21.978-2.741 0.393-5.694 0.085-5.768-3.314-3.952 3.59-10.017 5.184-14.882 2.528-4.334-2.432-4.515-9.295-0.531-12.141 4.525-3.07 10.336-1.986 15.296-3.856-0.117-1.848-0.042-3.973-1.508-5.311-4.005-2.666-10.792-1.657-11.77 3.75-1.476-0.212-2.952-0.425-4.418-0.627m6.65 8.169c-2.783 0.839-3.58 4.929-1.222 6.692 2.73 1.976 6.692 1.328 9.348-0.478 2.751-1.912 2.889-5.587 2.911-8.604-3.612 1.094-7.415 1.37-11.037 2.39z"/>
	<path d="m464 738.88c1.498-0.011 3.006-0.011 4.515 0v26.556c-1.508-0.011-3.017-0.011-4.515 0v-26.556z"/>
	<path d="m474.54 746.51c0.754-4.419 4.536-7.595 8.944-7.935 4.6-0.659 11.557-0.404 13.044 5.046 1.338 7.202-0.903 14.818 1.583 21.861-2.751 0.414-5.672 0.085-5.768-3.314-3.93 3.58-9.964 5.173-14.829 2.549-4.398-2.422-4.568-9.39-0.499-12.216 4.515-3.006 10.282-1.944 15.222-3.803-0.106-1.848-0.053-3.973-1.508-5.311-4.005-2.656-10.782-1.646-11.77 3.75-1.477-0.212-2.954-0.425-4.419-0.627m6.692 8.158c-2.836 0.807-3.633 4.971-1.232 6.735 2.751 1.933 6.692 1.285 9.337-0.531 2.73-1.912 2.857-5.577 2.9-8.583-3.612 1.083-7.394 1.37-11.005 2.379z"/>
	<path d="m507.31 739.39c5.842-2.56 14.935-0.85 16.157 6.448-1.508 0.287-3.017 0.542-4.525 0.786-0.563-5.842-11.578-6.533-11.695-0.425 3.898 4.515 11.61 2.666 15.689 7.213 2.39 2.953 1.477 7.563-1.264 9.964-3.803 3.059-9.22 3.187-13.692 1.721-3.314-1.253-5.056-4.578-5.874-7.818 1.477-0.223 2.964-0.436 4.461-0.637 0.69 6.703 11.801 7.946 13.554 1.338-1.083-2.932-4.345-3.134-6.915-3.898-3.399-1.02-7.521-1.53-9.603-4.769-2.125-3.581-0.149-8.552 3.707-9.923z"/></g><g fill="#fff" stroke="#fff" stroke-width=".5">
	<path d="m296.54 742.19c4.164-1.105 8.264 2.252 8.87 6.32 0.797 4.515 0.51 10.654-4.132 13.055-3.952 2.146-9.114-0.563-10.102-4.812-1.477-5.141-0.765-12.949 5.364-14.563z"/>
	<path d="m434.79 748.45c5.131 0.297 10.58-0.871 15.487 1.105 4.493 2.231 3.973 9.741-0.935 11.09-4.759 1.105-9.72 0.297-14.553 0.531 1e-3 -4.249 1e-3 -8.487 1e-3 -12.726z"/>
	<path d="m381.34 754.68c3.622-1.02 7.425-1.296 11.037-2.39-0.021 3.017-0.159 6.692-2.911 8.604-2.656 1.806-6.618 2.454-9.348 0.478-2.358-1.763-1.562-5.853 1.222-6.692z"/>
	<path d="m481.23 754.66c3.612-1.009 7.393-1.296 11.005-2.379-0.042 3.006-0.17 6.671-2.9 8.583-2.645 1.816-6.586 2.464-9.337 0.531-2.401-1.763-1.605-5.927 1.232-6.735z"/>
	</g><g stroke="#000" stroke-width=".5"><path d="m2043 777.39c5.948 0.17 11.939-0.372 17.877 0.308 5.301 0.552 8.041 7.032 5.8 11.578-1.264 3.112-4.706 4.228-7.691 4.918 4.982 3.378 7.212 9.242 10.548 14.011-1.179 0-3.537-0.011-4.716-0.021-2.677-4.036-4.897-8.434-8.169-12.025-2.454-2.74-6.469-1.54-9.656-1.774-0.032 4.6-0.011 9.199-0.011 13.809-1.36-0.011-2.688-0.011-3.983 0 1e-3 -10.271-0.01-20.532 1e-3 -30.804m3.983 3.718c-0.021 3.176-0.021 6.373 0.011 9.56 4.568-0.308 9.39 0.733 13.82-0.797 3.505-1.349 3.495-6.841-0.064-8.116-4.462-1.306-9.199-0.382-13.767-0.647z"/>
	<path d="m2177.9 777.39c1.211-0.011 2.454-0.011 3.718 0-0.032 1.317-0.032 2.645 0 3.983-1.264-0.011-2.507-0.021-3.728-0.011-0.022-1.327-0.011-2.655 0.01-3.972z"/>
	<path d="m2111.5 777.4c0.935 0 2.794-0.011 3.718-0.011-0.011 10.272 0 20.533 0 30.805-0.946 0-2.836-0.011-3.782-0.011 0.064-0.659 0.181-1.986 0.244-2.656-2.549 3.367-7.531 4.281-11.015 1.848-5.566-3.75-6.055-11.982-3.144-17.538 2.571-5.184 10.399-6.044 14.053-1.54-0.137-3.631-0.084-7.274-0.074-10.897m-8.158 11.526c-3.888 1.785-4.143 6.756-3.654 10.442 0.181 3.548 3.686 7.276 7.415 5.938 4.504-1.423 4.865-7.181 4.153-11.069-0.372-3.676-4.228-7.043-7.914-5.311z"/>
	<path d="m2166.5 780.43c1.222-0.775 2.464-1.551 3.729-2.305-0.021 2.571-0.021 5.162 0 7.754 1.211-0.011 2.443-0.011 3.707 0 0.01 0.722 0.032 2.156 0.042 2.868-1.275 0.021-2.528 0.042-3.75 0.074 0.042 4.982-0.117 9.974 0.064 14.956 0.521 1.593 2.432 1.126 3.76 1.36 0.053 1.168 0.127 2.348 0.223 3.537-2.656 0.191-6.767 0.361-7.457-2.953-0.69-5.566-0.18-11.228-0.255-16.815-0.68-0.042-2.04-0.117-2.709-0.149 0-0.722 0-2.156 0.011-2.879 0.658 0 1.986 0 2.645-0.011-0.031-1.825-0.021-3.631-0.01-5.437z"/>
	</g><path d="m2047 781.1c4.568 0.266 9.305-0.659 13.767 0.648 3.559 1.275 3.569 6.766 0.064 8.116-4.429 1.53-9.252 0.489-13.82 0.797-0.032-3.188-0.032-6.385-0.011-9.561z" fill="#fff" stroke="#fff" stroke-width=".5"/><g stroke="#000" stroke-width=".5">
	<path d="m2075.1 788.21c4.1-4.1 11.812-3.867 15.317 0.903 2.05 2.507 2.252 5.885 2.337 8.997-5.747-0.011-11.494-0.032-17.23 0.011 0.531 2.602 1.413 5.715 4.196 6.777 3.484 1.795 7.776 0 9.38-3.474 0.818 0.266 2.433 0.797 3.24 1.062-2.486 8.275-15.998 8.328-19.206 0.574-1.975-4.759-1.635-10.941 1.966-14.85m0.457 6.703c4.525-0.011 9.061 0.021 13.607-0.032-0.489-2.751-1.944-5.694-4.982-6.193-4.132-1.169-8.296 2.05-8.625 6.225z"/>
	<path d="m2120.8 785.89c1.2-0.021 2.443-0.021 3.707-0.021 0.085 5.258-0.159 10.516 0.106 15.774 0.393 5.555 9.38 4.791 10.155-0.191 0.818-5.131 0.149-10.399 0.382-15.583 1.211 0 2.443 0 3.707 0.021-0.021 7.436 0.011 14.861-0.01 22.296h-3.707c0.01-0.744 0.021-2.241 0.021-2.995-2.369 2.995-6.522 4.568-10.145 2.942-2.74-0.807-4.09-3.686-4.175-6.342-0.136-5.3 1e-3 -10.6-0.041-15.901z"/>
	<path d="m2146.6 806.07c-5.417-5.789-4.249-18.568 4.504-20.427 4.993-1.562 10.76 1.636 11.515 6.926-1.264 0.149-2.486 0.297-3.697 0.457-0.616-3.442-4.578-5.662-7.744-4.005-4.366 1.806-4.451 7.521-3.675 11.462 0.584 3.537 4.408 6.023 7.892 4.833 2.518-0.521 3.58-3.155 4.175-5.364 0.913 0.138 2.751 0.425 3.675 0.574-0.85 7.796-11.27 10.94-16.645 5.544z"/>
	<path d="m2177.9 785.88c1.211-0.011 2.454-0.011 3.718 0 0 7.436-0.01 14.861 0 22.296-1.275-0.011-2.517-0.011-3.718 0.011 0-7.436-0.01-14.872 0-22.307z"/>
	<path d="m2192.8 785.93c4.387-1.593 9.911-0.149 12.365 3.994 2.294 3.909 2.199 8.955 0.669 13.129-2.921 6.713-13.416 7.744-17.559 1.71-3.898-5.916-2.826-16.145 4.525-18.833m0.967 3.134c-6.342 3.527-5.109 16.592 3.049 16.518 5.099-0.191 7.149-6.193 6.246-10.506-0.096-4.493-5.078-8.126-9.295-6.012z"/>
	<path d="m2211.1 785.89c1.2-0.021 2.443-0.021 3.707-0.021 0 0.722-0.021 2.188-0.021 2.921 3.367-5.173 13.278-4.589 14.234 2.156 0.318 5.736 0.031 11.493 0.127 17.24h-3.707c-0.212-5.386 0.403-10.835-0.308-16.167-1.381-4.674-9.156-3.484-9.964 1.03-0.797 4.982-0.149 10.091-0.351 15.137h-3.707c-0.032-7.435 0-14.86-0.01-22.296z"/></g><g fill="#fff" stroke="#fff" stroke-width=".5">
	<path d="m2075.5 794.91c0.329-4.175 4.493-7.393 8.625-6.225 3.038 0.499 4.493 3.442 4.982 6.193-4.547 0.053-9.082 0.021-13.607 0.032z"/>
	<path d="m2103.4 788.92c3.686-1.731 7.542 1.636 7.914 5.311 0.712 3.888 0.35 9.645-4.153 11.069-3.729 1.338-7.234-2.39-7.415-5.938-0.488-3.687-0.233-8.658 3.654-10.442z"/>
	<path d="m2193.8 789.06c4.217-2.114 9.199 1.519 9.295 6.012 0.903 4.313-1.147 10.314-6.246 10.506-8.159 0.074-9.391-12.992-3.049-16.518z"/>
	</g><path d="m2041.7 831.29h61.875v61.875h-61.875c-0.01-20.628 0-41.246 0-61.875m2.125 2.125c0 19.205-0.011 38.421 0 57.627h57.627v-57.627h-57.627z" stroke="#000" stroke-width=".5"/>
	<path d="m2043.8 833.42h57.627v57.627h-57.627c-0.011-19.206 0-38.422 0-57.627z" fill="#fff" stroke="#fff" stroke-width=".5"/><g stroke="#000" stroke-width=".5">
	<path d="m2122.4 844.57c3.176-0.011 6.363-0.011 9.56 0v30.539h-9.56c-0.01-10.175-0.01-20.362 0-30.539z"/>
	<path d="m2138.9 844.57c2.889-0.011 5.8 0 8.721 0 3.813 5.619 7.627 11.239 11.462 16.847-0.011-5.619-0.011-11.228 0-16.847 2.995-0.011 6.002 0 9.029 0v30.539c-3.059 0.011-6.108 0.032-9.135-0.074-3.718-5.545-7.446-11.09-11.281-16.539-0.085 5.534-0.011 11.079-0.042 16.624-2.709 0-5.471-0.032-8.126-0.053l-0.18 1.317c-0.298-0.659-0.51-1.317-0.436-2.008-0.022-9.931-0.012-19.874-0.012-29.806z"/>
	<path d="m2041.7 907.51c20.629 0 41.247-0.011 61.875 0v61.875h-61.875c0-20.628-0.01-41.246 0-61.875m2.125 2.125c-0.011 19.205 0 38.421 0 57.627h57.627v-57.627c-19.217-0.011-38.422 0-57.627 0z"/>
	</g><path d="m2043.8 909.64c19.205 0 38.411-0.011 57.627 0v57.627h-57.627c0-19.206-0.011-38.422 0-57.627z" fill="#fff" stroke="#fff" stroke-width=".5"/><g stroke="#000" stroke-width=".5">
	<path d="m2131.5 922.46c7.17-1.88 16.582 0.021 19.8 7.457 2.401 6.363 2.125 14.691-2.974 19.715-5.226 4.716-13.246 4.674-19.524 2.348-11.77-5.482-10.538-26.705 2.698-29.52m3.898 6.618c-5.47 1.307-5.598 8.147-4.557 12.577 0.722 5.269 8.965 6.395 11.271 1.721 1.381-3.42 1.402-7.414 0.255-10.899-1.073-2.73-4.271-3.877-6.969-3.399z"/>
	<path d="m2157.7 922.39c3.166-0.021 6.352-0.021 9.56-0.011 0.085 6.735-0.181 13.48 0.117 20.204 0.871 4.961 9.082 4.908 9.868-0.085 0.265-6.703 0.01-13.416 0.106-20.119 3.176-0.011 6.363-0.011 9.56 0.011-0.064 6.49 0.095 12.981-0.064 19.481-0.149 4.886-3.442 9.656-8.264 10.92-4.292 1.052-8.87 0.86-13.119-0.234-4.632-1.338-7.457-6.055-7.701-10.686-0.18-6.49-0.01-12.991-0.063-19.481z"/>
	<path d="m2191.2 929.81c-0.021-2.486-0.021-4.95 0-7.425 9.56-0.011 19.12-0.011 28.68 0-0.021 2.475-0.021 4.95 0 7.436-3.208-0.011-6.384-0.011-9.56 0-0.021 7.701 0.01 15.402-0.011 23.114-3.208-0.021-6.384-0.021-9.55-0.021-0.01-7.701-0.01-15.392 0-23.093-3.207-1e-3 -6.394-0.011-9.559-0.011z"/>
	</g><path d="m2135.4 929.07c2.698-0.478 5.896 0.669 6.969 3.399 1.147 3.484 1.126 7.478-0.255 10.899-2.305 4.674-10.548 3.548-11.271-1.721-1.041-4.43-0.913-11.271 4.557-12.577z" fill="#fff" stroke="#fff" stroke-width=".5"/><g fill="#00A651" stroke="#00A651" stroke-width=".5">
	<path d="m811.09 1038c11.812-9.061 27.363-11.377 41.873-10.548 11.504 0.542 23.571 3.633 32.058 11.865 6.405 6.097 10.665 14.107 13.363 22.456-10.081 2.294-20.172 4.493-30.263 6.745-1.392-4.631-3.803-9.093-7.903-11.844-8.572-6.129-21.935-4.355-28.192 4.27-4.865 6.246-5.481 14.542-5.651 22.169 0.053 7.478 0.308 15.254 3.42 22.19 6.076 13.204 28.022 13.862 34.98 1.115 2.358-3.835 3.612-8.211 4.685-12.545 9.964 3.165 20.013 6.065 29.976 9.22-2.677 11.621-8.583 23.083-18.632 29.955-8.604 6.214-19.503 8.126-29.913 8.147-9.889 0.149-20.002-0.744-29.265-4.43-11.037-4.472-19.28-14.085-24.293-24.665-5.417-12.237-5.97-26.046-4.578-39.176 1.446-13.36 7.415-26.702 18.335-34.924z"/>
	<path d="m922.4 1036.5c6.947-6.076 16.242-8.615 25.303-9.072 9.72-0.51 19.832 0.266 28.808 4.345 9.135 4.249 15.7 12.694 19.407 21.893 4.068 10.314 4.897 21.574 4.78 32.558-0.361 11.366-1.689 23.104-7.085 33.301-3.962 7.765-10.729 13.99-18.685 17.516-9.539 4.43-20.374 4.653-30.656 3.782-7-0.659-14.022-2.698-19.609-7.096-6.288-4.769-10.229-11.971-12.503-19.396 10.272-1.391 20.565-2.613 30.847-3.93 0.913 4.175 2.348 9.082 6.713 10.845 5.938 2.709 12.97-1.03 15.509-6.703 3.123-6.968 3.42-14.765 4.387-22.212-5.715 5.502-12.959 9.921-21.085 10.261-9.858 0.977-20.151-2.167-27.289-9.146-15.848-14.616-15.062-42.903 1.158-56.946m27.438 10.59c-5.417 1.211-9.316 6.235-10.166 11.578-1.37 7.404-0.797 16.348 5.162 21.712 5.959 5.396 16.316 3.729 20.586-2.995 3.983-6.501 3.973-15.01 1.052-21.903-2.814-6.097-9.963-10.24-16.634-8.392z"/>
	<path d="m1045.9 1028.6c13.076-2.252 27.714-2.22 39.218 5.279 6.278 4.44 11.217 10.835 13.682 18.154 4.419 12.991 5.269 26.917 4.536 40.535-0.733 11.239-2.496 22.87-8.413 32.664-4.546 7.574-12.545 12.545-21.064 14.436-9.656 2.124-19.843 2.22-29.509 0.191-10.686-2.177-19.726-9.932-24.463-19.62-3.187-6.851-4.653-14.362-5.566-21.818-1.296-11.865-1.073-23.922 0.839-35.702 1.54-8.562 4.355-17.325 10.484-23.762 5.417-5.535 12.714-8.891 20.256-10.357m8.434 20.087c-5.789 2.082-7.988 8.615-8.848 14.17-1.87 12.354-1.806 24.963-0.627 37.391 0.765 6.044 1.806 12.768 6.511 17.145 4.483 4.291 12.396 3.134 15.923-1.827 4.345-5.948 4.77-13.65 5.248-20.735 0.308-9.188 0.404-18.419-0.616-27.576-0.722-5.258-1.508-10.952-5.078-15.137-2.899-3.654-8.168-5.003-12.513-3.431z"/>
	</g><g stroke-width=".5"><path d="m625.74 1029.1c17.708 0.042 35.426-0.064 53.144 0.042 11.047 0.191 22.626 2.539 31.262 9.9 11.95 9.826 16.38 25.834 17.006 40.747 0.181 11.897-0.096 24.421-5.63 35.245-5.428 10.909-15.583 19.79-27.735 22.073-10.761 3.006-21.978 2.061-32.993 2.199h-35.065c0-36.742-0.01-73.474 0.011-110.21m34.247 25.239c0.011 19.906 0 39.823 0 59.74 7.967-0.287 16.613 1.126 23.943-2.751 7.839-5.184 8.509-15.573 8.732-24.07-0.074-9.146 0.17-19.651-6.15-27.002-7.023-6.799-17.539-5.928-26.525-5.917z" stroke="#000"/>
	<path d="m949.84 1047.1c6.671-1.848 13.82 2.294 16.635 8.392 2.921 6.894 2.932 15.402-1.052 21.903-4.27 6.724-14.627 8.392-20.586 2.995-5.959-5.364-6.533-14.308-5.162-21.712 0.849-5.342 4.748-10.367 10.165-11.578z" fill="#fff" stroke="#fff"/>
	<path d="m1054.3 1048.7c4.345-1.572 9.613-0.223 12.513 3.431 3.569 4.185 4.355 9.879 5.078 15.137 1.02 9.156 0.924 18.387 0.616 27.576-0.478 7.085-0.903 14.786-5.248 20.735-3.527 4.961-11.44 6.119-15.923 1.827-4.706-4.377-5.747-11.101-6.511-17.145-1.179-12.428-1.243-25.037 0.627-37.391 0.86-5.555 3.059-12.088 8.848-14.17z" fill="#fff" stroke="#fff"/></g><g stroke="#000" stroke-width=".5">
	<path d="m1457.2 1069c3.091-9.125 11.249-16.104 20.608-18.164 8.7-1.88 18.09-1.859 26.471 1.413 7.797 3.091 12.864 10.58 15.402 18.302-6.076 1.328-12.163 2.645-18.228 4.015-0.924-2.008-1.7-4.185-3.314-5.736-5.141-5.364-15.084-4.599-19.312 1.519-3.282 4.568-3.335 10.505-3.25 15.902 0.329 4.78 0.584 10.251 4.228 13.841 4.068 3.813 10.697 4.121 15.498 1.551 3.952-2.432 5.513-7.138 6.597-11.398 6.097 1.87 12.226 3.643 18.334 5.481-2.029 8.7-7.308 17.166-15.827 20.692-8.466 3.378-18.005 2.995-26.8 1.285-10.92-2.199-19.014-11.886-21.542-22.392-1.914-8.657-1.712-17.888 1.135-26.311z"/>
	<path d="m1604.7 1060.3c3.952-6.873 12.152-9.815 19.683-10.399 8.402-0.69 17.442-0.531 25.005 3.665 5.8 3.272 8.657 9.836 9.454 16.199-6.554 0.181-13.098 0.797-19.641 1.041-0.637-2.634-1.561-5.46-3.941-7.011-3.197-2.008-7.446-2.305-10.909-0.871-2.05 0.733-3.378 3.08-2.964 5.205 1.561 3.601 6.023 3.792 9.326 4.706 8.795 2.135 18.526 3.739 25.271 10.304 7.797 8.105 5.842 22.222-2.581 29.137-7.117 6.161-17.134 6.968-26.131 6.586-7.372-0.425-15.562-1.593-20.862-7.255-4.196-4.313-6.278-10.219-6.926-16.104 6.607-0.52 13.246-0.754 19.864-1.338 0.69 3.165 1.487 6.597 4.068 8.817 3.548 3.006 8.859 3.41 13.098 1.71 3.229-1.285 5.417-5.364 3.558-8.594-2.114-3.463-6.395-4.281-9.985-5.311-7.882-1.806-16.274-3.686-22.53-9.146-5.948-5.237-6.979-14.702-2.857-21.341z"/>
	<path d="m1672.7 1060.3c3.941-6.873 12.131-9.826 19.651-10.41 8.434-0.701 17.527-0.552 25.101 3.686 5.768 3.282 8.604 9.826 9.401 16.167-6.543 0.212-13.076 0.733-19.598 1.083-0.691-3.75-2.942-7.616-6.968-8.36-3.59-0.818-8.806-0.807-10.569 3.07-1.487 2.709 1.243 5.354 3.771 5.927 9.316 2.677 19.492 3.644 27.693 9.263 7.032 4.653 9.443 14.34 6.607 22.084-2.634 8.179-10.431 13.767-18.706 15.19-8.933 1.519-18.355 1.349-27.002-1.476-8.817-2.974-13.809-12.195-14.585-21.043 6.607-0.52 13.246-0.754 19.864-1.338 0.69 3.176 1.498 6.639 4.111 8.859 3.58 2.985 8.912 3.367 13.14 1.636 3.176-1.328 5.29-5.333 3.495-8.53-2.263-3.665-6.83-4.419-10.633-5.492-7.68-1.742-15.796-3.686-21.882-8.987-5.961-5.215-7.012-14.679-2.891-21.329z"/>
	<path d="m1523.3 1117.8c8.477-22.371 16.847-44.784 25.313-67.155 7.659-0.011 15.328 0.021 23.008-0.021 8.349 22.381 16.624 44.795 24.973 67.176-7.266 0.053-14.521 0.032-21.776 0.011-1.126-3.718-2.252-7.425-3.346-11.143-7.85 0.032-15.7-0.011-23.539 0.021-1.105 3.718-2.231 7.446-3.42 11.143-7.085-0.021-14.149 0.032-21.213-0.032m29.094-25.749c4.886 0.032 9.783 0.021 14.691 0.011-2.401-8.02-4.865-16.029-7.244-24.049-2.55 7.988-4.876 16.05-7.447 24.038z"/>
	<path d="m1739 1050.6h55.768c-0.011 4.78-0.011 9.56 0 14.34-11.695 0.011-23.391-0.032-35.075 0.021 0.011 3.505 0.021 7.021-0.021 10.537 10.899 0.138 21.797 0.021 32.706 0.064-0.011 4.6-0.011 9.199 0 13.809-10.888 0-21.776-0.011-32.664 0-0.011 4.419-0.011 8.838 0 13.267 12.035 0.021 24.07 0 36.116 0.011-0.011 5.046 0 10.091-0.011 15.148-18.94-0.021-37.88-0.011-56.809-0.011-0.02-22.391-0.01-44.783-0.01-67.186z"/>
	<path d="m1802.2 1050.6h63.203c-0.011 5.577 0 11.154 0 16.73h-21.234c-0.032 16.815 0 33.641-0.021 50.456-6.905-0.011-13.799-0.011-20.693 0-0.021-16.815-0.011-33.63-0.011-50.446-7.085-0.021-14.16-0.011-21.234-0.011-0.021-5.575-0.021-11.152-0.01-16.729z"/>
	<path d="m1869.9 1050.6h63.203c-0.011 5.577 0 11.154-0.011 16.73h-21.234c-0.011 16.815 0 33.63 0 50.456h-20.714c0.011-16.805-0.043-33.609 0.032-50.403-7.096-0.117-14.192-0.021-21.266-0.053-0.021-5.576-0.021-11.153-0.01-16.73z"/>
	<path d="m1942.6 1050.7c18.589-0.011 37.178-0.011 55.768 0-0.011 4.77-0.011 9.55 0 14.33-11.695 0.011-23.38-0.011-35.054 0.011-0.011 3.527-0.011 7.064-0.011 10.601 10.888 0.021 21.776 0 32.675 0.011-0.011 4.6-0.011 9.199 0 13.809-10.899 0-21.787-0.011-32.664 0.011 0 4.419-0.021 8.849 0.021 13.278 12.025-0.021 24.06-0.021 36.095 0 0.011 5.003-0.064 10.017 0.053 15.031-18.961 0.212-37.922 0.032-56.872 0.096-0.021-22.394-0.011-44.786-0.011-67.178z"/>
	</g><g stroke-width=".5"><path d="m659.99 1054.4c8.987-0.011 19.503-0.882 26.524 5.917 6.32 7.351 6.076 17.856 6.15 27.002-0.223 8.498-0.892 18.887-8.732 24.07-7.329 3.877-15.976 2.464-23.943 2.751 1e-3 -19.917 0.011-39.834 1e-3 -59.74z" fill="#fff" stroke="#fff"/>
	<path d="m1552.4 1092.1c2.571-7.988 4.897-16.05 7.446-24.038 2.379 8.02 4.844 16.029 7.244 24.049-4.906 0.01-9.803 0.021-14.69-0.011z" fill="#fff" stroke="#fff"/>
	<path d="m737.27 1087h44.614v23.901h-44.614v-23.901z" stroke="#000"/>
	<path d="m736.5 1315.6c54.408-0.35 108.83-0.053 163.23-0.149 325.39-0.011 650.76 0.011 976.15-0.011 37.21 101.42 74.41 202.86 111.49 304.32-454.09 0.042-908.17 0.021-1362.2 0.011 37.146-101.38 74.41-202.72 111.38-304.17m191.36 139.95c-6.809 2.326-11.833 9.103-11.876 16.327 0.011 15.243-0.032 30.497 0.021 45.751 0.234 8.764 7.861 16.497 16.613 16.868 14.192 0.117 28.372-0.011 42.564 0.053 10.134 1.476 20.682-6.554 20.735-17.028 0-15.222-0.011-30.444 0.011-45.666 0.053-8.87-7.595-16.922-16.465-17.229-14.903-0.074-29.796 0.021-44.688-0.043-2.347-0.053-4.726 0.117-6.915 0.967m700.72-0.479c-7.563 1.753-13.406 8.987-13.384 16.773 0.021 15.232 0 30.465 0.011 45.698 0.095 9.103 8.381 17.07 17.474 16.985 15.286-0.011 30.593 0.074 45.889-0.042 8.753-0.393 16.359-8.158 16.55-16.932 0.064-14.882-0.011-29.775 0.032-44.657 0.478-9.316-7.446-18.069-16.805-18.281-13.788-0.032-27.576 0-41.364-0.021-2.816 0.021-5.673-0.234-8.403 0.477m-833.35 53.729c-19.811 3.42-36.169 20.554-38.655 40.503-3.049 19.311 7.191 39.76 24.453 48.916 18.154 10.251 42.84 6.809 57.234-8.36 15.583-14.978 18.43-40.928 6.788-59.071-10.007-16.677-30.742-25.834-49.82-21.988m1025 0.042c-5.343 1.02-10.484 3.006-15.179 5.736-15.073 8.615-24.527 25.983-23.656 43.318 0.361 19.524 14.128 37.816 32.717 43.732 17.357 6.033 37.933 0.882 50.329-12.694 14-14.415 17.028-37.911 7.393-55.491-9.422-18.291-31.443-28.829-51.604-24.601z" fill="#D7D1BC" stroke="#D7D1BC"/></g><g stroke="#000" stroke-width=".5">
	<path d="m927.86 1455.5c2.188-0.85 4.568-1.02 6.915-0.967 14.893 0.064 29.785-0.032 44.688 0.043 8.87 0.308 16.518 8.36 16.465 17.229-0.021 15.222-0.011 30.444-0.011 45.666-0.053 10.474-10.601 18.504-20.735 17.028-14.192-0.064-28.372 0.064-42.564-0.053-8.753-0.372-16.38-8.105-16.613-16.868-0.053-15.254-0.011-30.507-0.021-45.751 0.043-7.224 5.067-14.001 11.876-16.327m4.196 12.683c-1.785 0.829-3.059 2.645-2.783 4.685-0.011 14.542-0.043 29.073 0.011 43.616-0.138 2.921 2.751 5.109 5.556 4.727 14.16-0.011 28.33 0.011 42.5-0.011 2.634 0.255 5.524-1.859 5.29-4.685 0.021-14.574 0.021-29.148 0-43.722 0.351-2.921-2.411-5.449-5.258-4.982-15.095 0.276-30.306-0.457-45.316 0.372z"/>
	<path d="m1628.6 1455c2.73-0.712 5.587-0.457 8.402-0.478 13.788 0.021 27.576-0.011 41.364 0.021 9.358 0.212 17.283 8.965 16.805 18.281-0.043 14.882 0.032 29.775-0.032 44.657-0.191 8.774-7.797 16.539-16.55 16.932-15.296 0.117-30.603 0.032-45.889 0.042-9.093 0.085-17.378-7.882-17.474-16.985-0.011-15.232 0.011-30.465-0.011-45.698-0.02-7.785 5.822-15.019 13.385-16.772m3.367 12.885c-2.178 0.51-3.782 2.688-3.463 4.939 0 14.542-0.021 29.095 0.011 43.648-0.266 2.836 2.624 4.95 5.29 4.706 14.5-0.011 28.999 0.064 43.499-0.032 2.486 0.053 4.653-2.252 4.557-4.716 0.042-14.51 0.021-29.031 0.011-43.541 0.425-3.038-2.592-5.566-5.481-5.088-14.808 0.074-29.627-0.107-44.424 0.084z"/>
	<path d="m795.23 1508.8c19.078-3.845 39.813 5.311 49.819 21.988 11.642 18.143 8.795 44.094-6.788 59.071-14.393 15.169-39.08 18.61-57.234 8.36-17.261-9.157-27.501-29.605-24.453-48.916 2.487-19.949 18.845-37.083 38.656-40.503m0.807 13.49c-5.864 1.423-11.355 4.398-15.711 8.594-11.026 10.102-14.245 27.671-7.085 40.896 7.383 15.137 26.673 23.125 42.49 16.975 16.497-5.471 26.907-24.591 22.031-41.374-4.206-17.783-23.996-29.935-41.725-25.091z"/>
	<path d="m1820.3 1508.8c20.161-4.228 42.182 6.31 51.604 24.601 9.634 17.58 6.607 41.077-7.393 55.491-12.396 13.575-32.972 18.727-50.329 12.694-18.589-5.917-32.356-24.208-32.717-43.732-0.871-17.336 8.583-34.703 23.656-43.318 4.695-2.73 9.836-4.716 15.179-5.736m1.678 13.289c-12.12 2.635-22.413 12.226-25.834 24.156-3.304 10.824-0.744 23.189 6.575 31.825 9.571 12.003 27.448 16.231 41.289 9.454 15.689-6.915 24.283-26.354 18.377-42.543-5.183-16.359-23.666-27.056-40.407-22.892z"/>
	<path d="m125.83 1632.7c13.979-1.062 28.064-0.159 42.086-0.457 771.89 0 1543.8-0.011 2315.6 0 5.896 0.117 11.844-0.467 17.708 0.584l-1.2 0.478h-2375.5l1.264-0.605z" enable-background="new    " opacity=".75"/>
</g><g id="rightsprocket" transform="translate(956.9 -.001)" stroke-width=".5"><path d="m813.27 599.51c37.625-3.824 76.534 6.32 107.31 28.362 27.013 19.312 47.843 47.206 58.349 78.723 9.55 28.33 10.782 59.39 3.569 88.4-9.858 40.461-36.573 76.407-72.36 97.673-21.988 13.257-47.28 20.979-72.923 22.211-29.201 1.593-58.838-5.12-84.427-19.29-26.492-14.574-48.651-36.892-63.044-63.469-18.026-32.972-23.391-72.487-15.328-109.14 7.712-35.925 28.67-68.684 57.637-91.193 23.274-18.186 51.827-29.445 81.219-32.282m-1.105 13.767c-14.84 1.742-29.424 5.726-43.01 11.95-35.968 16.104-64.414 47.801-77.097 85.054-12.981 37.518-9.465 80.369 9.613 115.21 14.871 27.618 38.952 50.138 67.527 63.086 31.272 14.404 67.771 16.911 100.74 7.021 42.033-12.248 77.469-44.731 93.445-85.468 11.802-29.498 13.416-62.927 4.461-93.413-8.455-29.498-26.8-55.874-51.009-74.633-29.392-22.721-67.813-33.269-104.67-28.808z" stroke="#000"/><path d="m812.16 613.28c36.86-4.461 75.281 6.087 104.67 28.808 24.208 18.759 42.553 45.135 51.009 74.633 8.955 30.486 7.34 63.915-4.461 93.413-15.976 40.737-51.412 73.22-93.445 85.468-32.972 9.889-69.471 7.383-100.74-7.021-28.574-12.949-52.655-35.468-67.527-63.086-19.078-34.841-22.594-77.692-9.613-115.21 12.683-37.253 41.13-68.95 77.097-85.054 13.586-6.224 28.171-10.208 43.01-11.95m0.892 7.276c-25.302 2.836-49.713 12.991-69.598 28.893-28.468 22.445-47.355 56.617-51.009 92.702-4.005 35.606 6.671 72.604 29.19 100.49 20.427 25.696 50.34 43.669 82.685 49.384 32.207 5.895 66.464-0.127 94.593-16.932 19.821-11.748 36.605-28.542 48.279-48.406 15.987-26.726 22.116-59.05 17.559-89.823-4.599-32.271-21.319-62.598-46.037-83.811-28.596-25.038-67.952-37.051-105.66-32.495z" fill="#fff" stroke="#fff"/><path d="m813.06 620.56c37.71-4.557 77.066 7.457 105.66 32.494 24.718 21.213 41.438 51.54 46.037 83.811 4.557 30.773-1.572 63.097-17.559 89.823-11.674 19.864-28.457 36.658-48.279 48.406-28.128 16.805-62.385 22.828-94.593 16.932-32.345-5.715-62.258-23.688-82.685-49.384-22.519-27.884-33.195-64.882-29.19-100.49 3.654-36.084 22.541-70.257 51.009-92.702 19.887-15.9 44.297-26.055 69.599-28.892m29.382 16.263c-0.032 10.644 0.011 21.298-0.021 31.942-9.741-0.021-19.492 0.096-29.233-0.064 0.064-10.527 0.021-21.054 0.021-31.58-22.042 2.804-43.265 11.844-60.484 25.908-7.712 6.575-15.349 13.66-20.831 22.233 9.826 5.343 19.333 11.281 29.148 16.656-4.302 8.073-8.923 15.997-13.692 23.805-9.73-5.853-19.62-11.43-29.435-17.113-13.225 30.391-13.321 66.273 0.074 96.632 9.943-5.545 19.62-11.547 29.605-16.996 4.568 7.786 8.923 15.7 13.66 23.38-9.645 6.097-19.906 11.207-29.467 17.421 19.258 26.036 49.235 43.764 81.421 47.726 0-10.527 0.053-21.054-0.032-31.57 9.741-0.212 19.492-0.053 29.254-0.085 0.011 10.644-0.021 21.287 0.011 31.942 33.068-3.42 64.064-21.457 83.747-48.194-9.836-5.683-19.641-11.419-29.53-16.996 4.483-7.935 9.04-15.827 13.629-23.699 9.889 5.63 19.673 11.44 29.626 16.953 13.352-30.38 13.289-66.167-0.032-96.536-9.868 5.694-19.736 11.398-29.594 17.113-4.568-7.892-9.167-15.753-13.618-23.699 9.889-5.587 19.683-11.313 29.509-16.996-19.662-26.736-50.679-44.805-83.736-48.183z" fill="#aca491" stroke="#aca491"/></g>
</svg>
